<svg width="24" height="24" viewBox="0 0 24 24" fill="none" xmlns="http://www.w3.org/2000/svg">
<g id="Icon_youtube_fill">
<g id="Vector">
<path d="M20.6249 7.87364C20.4187 7.13727 19.8088 6.55636 19.0328 6.35727C17.6297 6 12 6 12 6C12 6 6.37321 6 4.96723 6.35727C4.19408 6.55364 3.58416 7.13455 3.37512 7.87364C3 9.21 3 12 3 12C3 12 3 14.79 3.37512 16.1264C3.58129 16.8627 4.19122 17.4436 4.96723 17.6427C6.37321 18 12 18 12 18C12 18 17.6297 18 19.0328 17.6427C19.8059 17.4464 20.4158 16.8655 20.6249 16.1264C21 14.79 21 12 21 12C21 12 21 9.21 20.6249 7.87364Z" fill="#D9D9D9"/>
<path d="M10.2017 14.5718L14.8778 12L10.2017 9.42818V14.5718Z" fill="white"/>
</g>
</g>
</svg>
