<svg width="24" height="24" viewBox="0 0 24 24" fill="none" xmlns="http://www.w3.org/2000/svg">
<g id="icon_Twitter_fill">
<path id="Vector" fill-rule="evenodd" clip-rule="evenodd" d="M19.7721 8.08863C19.7789 8.26352 19.7812 8.43833 19.7812 8.61322C19.7812 13.9154 16.0513 20.0365 9.23073 20.0365C7.13556 20.0365 5.18736 19.3687 3.5459 18.232C3.83606 18.2638 4.13074 18.2877 4.42994 18.2877C6.16712 18.2877 7.76713 17.6437 9.03629 16.5625C7.41366 16.5387 6.04352 15.3701 5.57098 13.7803C5.79783 13.828 6.03145 13.8519 6.27036 13.8519C6.60724 13.8519 6.93433 13.8043 7.24785 13.7089C5.54986 13.3432 4.27092 11.7216 4.27092 9.77398C4.27092 9.75013 4.27092 9.74214 4.27092 9.72624C4.77135 10.0204 5.34412 10.2031 5.95232 10.227C4.95598 9.50357 4.30105 8.27145 4.30105 6.88032C4.30105 6.14898 4.48343 5.45736 4.80449 4.86116C6.63286 7.29365 9.36639 8.89149 12.4481 9.05843C12.3848 8.7643 12.3524 8.45436 12.3524 8.14433C12.3524 5.92647 14.0127 4.12988 16.0611 4.12988C17.1275 4.12988 18.0907 4.61486 18.7667 5.3939C19.6131 5.21901 20.4059 4.88516 21.1234 4.4241C20.8453 5.36212 20.2582 6.14894 19.491 6.6418C20.2416 6.54641 20.9576 6.33194 21.6216 6.01397C21.1234 6.81685 20.4964 7.52423 19.7721 8.08863Z" fill="#D9D9D9"/>
</g>
</svg>
