<svg width="24" height="24" viewBox="0 0 24 24" fill="none" xmlns="http://www.w3.org/2000/svg">
<g id="insta">
<path id="Rectangle 1 (Stroke)" fill-rule="evenodd" clip-rule="evenodd" d="M10.9268 2H13.0732C14.8966 1.99997 16.3664 1.99995 17.5223 2.15537C18.7225 2.31672 19.733 2.66191 20.5355 3.46447C21.3381 4.26702 21.6833 5.27752 21.8446 6.47767C22.0001 7.63363 22 9.1034 22 10.9269V13.0731C22 14.8966 22.0001 16.3664 21.8446 17.5223C21.6833 18.7225 21.3381 19.733 20.5355 20.5355C19.733 21.3381 18.7225 21.6833 17.5223 21.8446C16.3664 22.0001 14.8966 22 13.0731 22H10.9269C9.1034 22 7.63363 22.0001 6.47767 21.8446C5.27752 21.6833 4.26702 21.3381 3.46447 20.5355C2.66191 19.733 2.31672 18.7225 2.15537 17.5223C1.99995 16.3664 1.99997 14.8966 2 13.0732V10.9268C1.99997 9.10338 1.99995 7.63362 2.15537 6.47767C2.31672 5.27752 2.66191 4.26702 3.46447 3.46447C4.26702 2.66191 5.27752 2.31672 6.47767 2.15537C7.63362 1.99995 9.10338 1.99997 10.9268 2ZM6.74416 4.13753C5.76579 4.26907 5.2477 4.50966 4.87868 4.87868C4.50966 5.2477 4.26907 5.76579 4.13753 6.74416C4.00213 7.7513 4 9.08611 4 11V13C4 14.9139 4.00213 16.2487 4.13753 17.2558C4.26907 18.2342 4.50966 18.7523 4.87868 19.1213C5.2477 19.4903 5.76579 19.7309 6.74416 19.8625C7.7513 19.9979 9.08611 20 11 20H13C14.9139 20 16.2487 19.9979 17.2558 19.8625C18.2342 19.7309 18.7523 19.4903 19.1213 19.1213C19.4903 18.7523 19.7309 18.2342 19.8625 17.2558C19.9979 16.2487 20 14.9139 20 13V11C20 9.08611 19.9979 7.7513 19.8625 6.74416C19.7309 5.76579 19.4903 5.2477 19.1213 4.87868C18.7523 4.50966 18.2342 4.26907 17.2558 4.13753C16.2487 4.00213 14.9139 4 13 4H11C9.08611 4 7.7513 4.00213 6.74416 4.13753Z" fill="#D9D9D9"/>
<circle id="Ellipse 46" cx="16.5" cy="7.5" r="1.5" fill="#D9D9D9"/>
<path id="Ellipse 55 (Stroke)" fill-rule="evenodd" clip-rule="evenodd" d="M12 14C13.1046 14 14 13.1046 14 12C14 10.8954 13.1046 10 12 10C10.8954 10 10 10.8954 10 12C10 13.1046 10.8954 14 12 14ZM12 16C14.2091 16 16 14.2091 16 12C16 9.79086 14.2091 8 12 8C9.79086 8 8 9.79086 8 12C8 14.2091 9.79086 16 12 16Z" fill="#D9D9D9"/>
</g>
</svg>
