<svg width="69" height="40" viewBox="0 0 69 40" fill="none" xmlns="http://www.w3.org/2000/svg">
<path id="Vector" opacity="0.2" d="M62.2695 0.5H15.4411C12.1215 0.5 9.39205 3.19471 9.39205 6.50451V8.75986C9.39205 9.57999 10.0707 10.2537 10.8969 10.2537C11.7231 10.2537 12.4018 9.57999 12.4018 8.75986V6.50451C12.4018 6.2116 12.4756 5.90406 12.5494 5.61115L29.4719 20.0073L12.5641 34.3889C12.4903 34.0959 12.4166 33.7884 12.4166 33.4955V31.2401C12.4166 30.42 11.7379 29.7463 10.9117 29.7463C10.0855 29.7463 9.4068 30.42 9.4068 31.2401V33.4955C9.4068 36.7907 12.1215 39.5 15.4558 39.5H62.2842C65.6038 39.5 68.3333 36.8053 68.3333 33.4955V6.50451C68.3185 3.19471 65.6038 0.5 62.2695 0.5ZM14.8362 3.57548C14.9837 3.50225 15.2198 3.50225 15.4411 3.50225H62.2695C62.4908 3.50225 62.7268 3.50225 62.8744 3.57548L39.8438 23.1414C39.2389 23.5954 38.4864 23.5954 37.8815 23.1414L14.8362 3.57548ZM62.2695 36.4977H15.4411C15.2198 36.4977 14.9837 36.4977 14.8362 36.4245L31.8325 21.9551L35.9045 25.4846C36.7307 26.2315 37.793 26.6123 38.8553 26.6123C39.9175 26.6123 40.9651 26.2315 41.806 25.4846L45.8781 21.9551L62.8744 36.4245C62.7268 36.4977 62.5055 36.4977 62.2695 36.4977ZM65.294 33.4955C65.294 33.7884 65.2202 34.0959 65.1464 34.3889L48.2239 19.9927L65.1464 5.59651C65.2202 5.88941 65.294 6.19696 65.294 6.48986V33.4955ZM4.86265 16.2435C4.86265 15.4234 5.54132 14.7497 6.36753 14.7497H15.4263C16.2525 14.7497 16.9312 15.4234 16.9312 16.2435C16.9312 17.0637 16.2525 17.7373 15.4263 17.7373H6.38229C5.54132 17.752 4.86265 17.0783 4.86265 16.2435ZM15.4411 25.2503H1.83813C1.01192 25.2503 0.333252 24.5766 0.333252 23.7418C0.333252 22.9217 1.01192 22.248 1.83813 22.248H15.4411C16.2673 22.248 16.946 22.9217 16.946 23.7418C16.946 24.5766 16.2673 25.2503 15.4411 25.2503Z" fill="black"/>
</svg>
